<?xml version="1.0" standalone="no"?>
<!DOCTYPE svg PUBLIC "-//W3C//DTD SVG 20010904//EN"
 "http://www.w3.org/TR/2001/REC-SVG-20010904/DTD/svg10.dtd">
<svg version="1.0" xmlns="http://www.w3.org/2000/svg"
 width="150.000000pt" height="140.000000pt" viewBox="0 0 150.000000 140.000000"
 preserveAspectRatio="xMidYMid meet">

<g transform="translate(0.000000,140.000000) scale(0.100000,-0.100000)"
fill="#000000" stroke="none">
<path d="M681 1386 c-9 -10 -11 -33 -6 -73 10 -90 12 -93 51 -93 44 0 48 11
37 102 -8 72 -8 73 -39 76 -18 2 -36 -3 -43 -12z"/>
<path d="M882 1318 c-13 -47 -18 -76 -11 -84 5 -6 38 -19 73 -28 79 -22 199
-98 249 -159 56 -68 108 -176 117 -243 5 -32 12 -71 15 -86 4 -15 0 -61 -10
-103 -79 -355 -433 -537 -750 -385 -180 87 -286 255 -289 455 -1 75 1 89 14
86 44 -10 88 -12 93 -4 3 5 -15 91 -40 191 -34 135 -49 182 -61 182 -23 0
-283 -250 -280 -269 2 -10 23 -21 53 -29 l50 -14 -3 -104 c-5 -135 16 -229 76
-346 82 -160 227 -283 407 -344 70 -24 96 -27 205 -27 108 0 136 3 205 26 151
50 283 149 376 280 229 327 134 766 -216 986 -58 37 -194 91 -228 91 -21 0
-26 -9 -45 -72z"/>
<path d="M460 1312 l-22 -18 27 -55 c42 -83 51 -91 86 -73 37 18 36 31 -3 105
-34 63 -51 71 -88 41z"/>
<path d="M573 899 c-17 -5 -45 -22 -61 -39 -49 -48 -51 -112 -6 -161 l24 -25
-29 -22 c-54 -40 -54 -137 0 -190 57 -56 164 -65 237 -20 42 26 62 65 62 124
0 39 -5 51 -33 79 l-33 33 22 19 c13 11 26 38 30 59 9 47 -17 100 -62 126 -38
22 -109 30 -151 17z m97 -89 c23 -23 24 -29 10 -64 -11 -30 -49 -42 -79 -26
-31 16 -30 87 2 100 34 13 45 12 67 -10z m18 -213 c17 -36 4 -77 -31 -97 -24
-13 -30 -13 -54 0 -22 13 -29 24 -31 57 -4 53 17 75 67 71 28 -2 39 -9 49 -31z"/>
<path d="M830 755 c0 -95 0 -95 25 -95 23 0 25 4 25 40 l0 40 40 0 40 0 0 -40
c0 -33 3 -40 20 -40 19 0 20 7 20 95 0 88 -1 95 -20 95 -17 0 -20 -7 -20 -40
l0 -40 -40 0 -40 0 0 40 c0 36 -2 40 -25 40 -25 0 -25 0 -25 -95z"/>
<path d="M1030 755 c0 -95 0 -95 25 -95 22 0 25 4 25 35 0 44 9 44 38 0 16
-25 30 -35 47 -35 25 0 25 1 10 29 -8 17 -19 33 -25 36 -6 4 -3 16 10 32 40
51 5 93 -77 93 l-53 0 0 -95z m90 50 c10 -12 10 -18 0 -30 -21 -25 -40 -18
-40 15 0 33 19 40 40 15z"/>
</g>
</svg>
