<?xml version="1.0" standalone="no"?>
<!DOCTYPE svg PUBLIC "-//W3C//DTD SVG 20010904//EN"
 "http://www.w3.org/TR/2001/REC-SVG-20010904/DTD/svg10.dtd">
<svg version="1.0" xmlns="http://www.w3.org/2000/svg"
 width="150.000000pt" height="141.000000pt" viewBox="0 0 150.000000 141.000000"
 preserveAspectRatio="xMidYMid meet">

<g transform="translate(0.000000,141.000000) scale(0.100000,-0.100000)"
fill="#000000" stroke="none">
<path d="M701 1401 c-10 -7 -12 -24 -6 -72 3 -35 9 -72 11 -81 6 -20 35 -23
66 -7 18 10 19 17 13 72 -9 90 -13 97 -43 97 -15 0 -33 -4 -41 -9z"/>
<path d="M957 1383 c-5 -10 -47 -140 -47 -147 0 -3 14 -13 31 -22 26 -13 34
-14 45 -2 19 19 50 146 39 157 -14 12 -63 22 -68 14z"/>
<path d="M461 1323 l-21 -18 31 -60 c45 -86 48 -88 87 -65 l32 20 -35 70 c-38
75 -55 85 -94 53z"/>
<path d="M1156 1223 c-51 -64 -55 -82 -26 -108 26 -24 41 -16 91 50 45 60 46
73 2 102 -19 13 -24 10 -67 -44z"/>
<path d="M131 1016 c-76 -76 -131 -139 -127 -145 4 -6 27 -17 52 -24 l45 -13
3 -139 c2 -113 7 -153 25 -205 62 -180 188 -328 347 -408 113 -58 188 -76 309
-77 133 0 192 13 310 70 140 68 243 165 319 300 38 67 79 185 74 211 -2 12
-25 23 -68 36 -36 10 -70 18 -76 18 -7 0 -23 -34 -37 -75 -14 -42 -40 -101
-59 -131 -66 -111 -207 -215 -328 -243 -66 -15 -197 -13 -265 4 -87 23 -152
62 -226 135 -103 102 -158 236 -159 388 0 68 1 69 64 51 26 -7 42 -7 48 -1 7
7 -5 70 -36 190 -25 100 -46 183 -46 186 0 3 -8 6 -18 6 -9 0 -77 -60 -151
-134z"/>
<path d="M1302 1040 c-58 -37 -62 -42 -51 -62 26 -50 28 -50 88 -17 31 17 64
38 73 47 17 14 17 16 1 43 -10 16 -24 29 -33 29 -8 0 -43 -18 -78 -40z"/>
<path d="M840 855 c0 -95 0 -95 25 -95 23 0 25 4 25 40 l0 40 40 0 40 0 0 -40
c0 -33 3 -40 20 -40 19 0 20 7 20 95 0 88 -1 95 -20 95 -17 0 -20 -7 -20 -40
l0 -40 -40 0 -40 0 0 40 c0 36 -2 40 -25 40 -25 0 -25 0 -25 -95z"/>
<path d="M1040 855 c0 -95 0 -95 25 -95 22 0 25 4 25 35 0 44 9 44 38 0 16
-25 30 -35 47 -35 25 0 25 1 10 29 -8 17 -19 33 -25 36 -6 4 -3 16 10 32 40
51 5 93 -77 93 l-53 0 0 -95z m90 50 c10 -12 10 -18 0 -30 -21 -25 -40 -18
-40 15 0 33 19 40 40 15z"/>
<path d="M562 790 c-106 -142 -112 -152 -104 -182 l8 -33 107 -3 107 -3 0 -54
0 -55 50 0 50 0 0 54 c0 49 2 55 23 58 18 2 23 10 25 41 3 34 1 37 -22 37
l-26 0 0 145 0 145 -52 0 -53 0 -113 -150z m120 -62 l-4 -78 -55 0 c-40 0 -52
3 -47 13 14 23 107 148 109 145 1 -2 0 -38 -3 -80z"/>
<path d="M1390 827 c-62 -12 -65 -13 -68 -43 -5 -49 15 -58 98 -44 77 13 89
24 74 69 -11 31 -20 32 -104 18z"/>
</g>
</svg>
